<?xml version="1.0" encoding="utf-8" ?>
<svg baseProfile="tiny" height="2250" version="1.2" width="674" xmlns="http://www.w3.org/2000/svg" xmlns:ev="http://www.w3.org/2001/xml-events" xmlns:xlink="http://www.w3.org/1999/xlink"><defs /><rect fill="white" height="12" opacity="0.3" rx="1" ry="1" stroke="black" width="45" x="0" y="15" /><text fill="black" font-family="Montserrat" font-size="12" x="1" y="27">Name</text><rect fill="red" height="12" opacity="0.8" rx="1" ry="1" stroke="red" width="45" x="48" y="15" /><text fill="black" font-family="Montserrat" font-size="12" x="49" y="27">Power</text><rect fill="black" height="12" opacity="0.9" rx="1" ry="1" stroke="black" width="45" x="96" y="15" /><text fill="white" font-family="Montserrat" font-size="12" x="97" y="27">GND</text><rect fill="yellow" height="12" opacity="0.7" rx="1" ry="1" stroke="yellow" width="45" x="144" y="15" /><text fill="black" font-family="Montserrat" font-size="12" x="145" y="27">Control</text><rect fill="green" height="12" opacity="0.3" rx="1" ry="1" stroke="green" width="45" x="192" y="15" /><text fill="black" font-family="Montserrat" font-size="12" x="193" y="27">Arduino</text><rect fill="blue" height="12" opacity="0.4" rx="1" ry="1" stroke="blue" width="45" x="240" y="15" /><text fill="black" font-family="Montserrat" font-size="12" x="241" y="27">Port</text><rect fill="purple" height="12" opacity="0.4" rx="1" ry="1" stroke="purple" width="45" x="288" y="15" /><text fill="black" font-family="Montserrat" font-size="12" x="289" y="27">ADC</text><rect fill="yellow" height="12" opacity="0.3" rx="1" ry="1" stroke="yellow" width="45" x="336" y="15" /><text fill="black" font-family="Montserrat" font-size="12" x="337" y="27">PWM</text><rect fill="grey" height="12" opacity="0.3" rx="1" ry="1" stroke="grey" width="45" x="384" y="15" /><text fill="black" font-family="Montserrat" font-size="12" x="385" y="27">SPI</text><rect fill="purple" height="12" opacity="0.2" rx="1" ry="1" stroke="purple" width="45" x="432" y="15" /><text fill="black" font-family="Montserrat" font-size="12" x="433" y="27">Ext Interrupt</text><rect fill="orange" height="12" opacity="0.5" rx="1" ry="1" stroke="orange" width="45" x="480" y="15" /><text fill="black" font-family="Montserrat" font-size="9" x="481" y="27">PC Interrupt</text><rect fill="blue" height="12" opacity="0.1" rx="1" ry="1" stroke="blue" width="45" x="528" y="15" /><text fill="black" font-family="Montserrat" font-size="12" x="529" y="27">Misc</text><rect fill="blue" height="12" opacity="0.1" rx="1" ry="1" stroke="blue" width="45" x="576" y="15" /><text fill="black" font-family="Montserrat" font-size="12" x="577" y="27">Misc2</text><rect fill="white" height="12" opacity="0.3" rx="1" ry="1" stroke="black" width="45" x="0" y="45" /><text fill="black" font-family="Montserrat" font-size="12" x="1" y="57">VCC</text><rect fill="red" height="12" opacity="0.8" rx="1" ry="1" stroke="red" width="45" x="48" y="45" /><text fill="black" font-family="Montserrat" font-size="12" x="49" y="57">VCC</text><rect fill="white" height="12" opacity="0.3" rx="1" ry="1" stroke="black" width="45" x="0" y="60" /><text fill="black" font-family="Montserrat" font-size="12" x="1" y="72">PB2</text><rect fill="green" height="12" opacity="0.3" rx="1" ry="1" stroke="green" width="45" x="48" y="60" /><text fill="black" font-family="Montserrat" font-size="12" x="49" y="72">2</text><rect fill="blue" height="12" opacity="0.4" rx="1" ry="1" stroke="blue" width="45" x="96" y="60" /><text fill="black" font-family="Montserrat" font-size="12" x="97" y="72">PB2</text><rect fill="purple" height="12" opacity="0.4" rx="1" ry="1" stroke="purple" width="45" x="144" y="60" /><text fill="black" font-family="Montserrat" font-size="12" x="145" y="72">ADC1</text><rect fill="grey" height="12" opacity="0.3" rx="1" ry="1" stroke="grey" width="45" x="192" y="60" /><text fill="black" font-family="Montserrat" font-size="12" x="193" y="72">SCL</text><rect fill="purple" height="12" opacity="0.2" rx="1" ry="1" stroke="purple" width="45" x="240" y="60" /><text fill="black" font-family="Montserrat" font-size="12" x="241" y="72">INT0</text><rect fill="orange" height="12" opacity="0.5" rx="1" ry="1" stroke="orange" width="45" x="288" y="60" /><text fill="black" font-family="Montserrat" font-size="9" x="289" y="72">PCINT2</text><rect fill="white" height="12" opacity="0.3" rx="1" ry="1" stroke="black" width="45" x="0" y="75" /><text fill="black" font-family="Montserrat" font-size="12" x="1" y="87">PB1</text><rect fill="green" height="12" opacity="0.3" rx="1" ry="1" stroke="green" width="45" x="48" y="75" /><text fill="black" font-family="Montserrat" font-size="12" x="49" y="87">1</text><rect fill="blue" height="12" opacity="0.4" rx="1" ry="1" stroke="blue" width="45" x="96" y="75" /><text fill="black" font-family="Montserrat" font-size="12" x="97" y="87">PB1</text><rect fill="yellow" height="12" opacity="0.3" rx="1" ry="1" stroke="yellow" width="45" x="144" y="75" /><text fill="black" font-family="Montserrat" font-size="12" x="145" y="87">PWM</text><rect fill="grey" height="12" opacity="0.3" rx="1" ry="1" stroke="grey" width="45" x="192" y="75" /><text fill="black" font-family="Montserrat" font-size="12" x="193" y="87">MISO</text><rect fill="orange" height="12" opacity="0.5" rx="1" ry="1" stroke="orange" width="45" x="240" y="75" /><text fill="black" font-family="Montserrat" font-size="9" x="241" y="87">PCINT1</text><rect fill="white" height="12" opacity="0.3" rx="1" ry="1" stroke="black" width="45" x="0" y="90" /><text fill="black" font-family="Montserrat" font-size="12" x="1" y="102">PB0</text><rect fill="green" height="12" opacity="0.3" rx="1" ry="1" stroke="green" width="45" x="48" y="90" /><text fill="black" font-family="Montserrat" font-size="12" x="49" y="102">0</text><rect fill="blue" height="12" opacity="0.4" rx="1" ry="1" stroke="blue" width="45" x="96" y="90" /><text fill="black" font-family="Montserrat" font-size="12" x="97" y="102">PB0</text><rect fill="yellow" height="12" opacity="0.3" rx="1" ry="1" stroke="yellow" width="45" x="144" y="90" /><text fill="black" font-family="Montserrat" font-size="12" x="145" y="102">PWM</text><rect fill="grey" height="12" opacity="0.3" rx="1" ry="1" stroke="grey" width="45" x="192" y="90" /><text fill="black" font-family="Montserrat" font-size="12" x="193" y="102">MOSI</text><rect fill="orange" height="12" opacity="0.5" rx="1" ry="1" stroke="orange" width="45" x="240" y="90" /><text fill="black" font-family="Montserrat" font-size="9" x="241" y="102">PCINT0</text><rect fill="white" height="12" opacity="0.3" rx="1" ry="1" stroke="black" width="45" x="626" y="120" /><text fill="black" font-family="Montserrat" font-size="12" x="627" y="132">PB5</text><rect fill="yellow" height="12" opacity="0.7" rx="1" ry="1" stroke="yellow" width="45" x="578" y="120" /><text fill="black" font-family="Montserrat" font-size="12" x="579" y="132">RESET</text><rect fill="green" height="12" opacity="0.3" rx="1" ry="1" stroke="green" width="45" x="530" y="120" /><text fill="black" font-family="Montserrat" font-size="12" x="531" y="132">A0</text><rect fill="blue" height="12" opacity="0.4" rx="1" ry="1" stroke="blue" width="45" x="482" y="120" /><text fill="black" font-family="Montserrat" font-size="12" x="483" y="132">PB5</text><rect fill="purple" height="12" opacity="0.4" rx="1" ry="1" stroke="purple" width="45" x="434" y="120" /><text fill="black" font-family="Montserrat" font-size="12" x="435" y="132">ADC0</text><rect fill="white" height="12" opacity="0.3" rx="1" ry="1" stroke="black" width="45" x="626" y="135" /><text fill="black" font-family="Montserrat" font-size="12" x="627" y="147">PB3</text><rect fill="yellow" height="12" opacity="0.7" rx="1" ry="1" stroke="yellow" width="45" x="578" y="135" /><text fill="black" font-family="Montserrat" font-size="12" x="579" y="147">XTAL1</text><rect fill="green" height="12" opacity="0.3" rx="1" ry="1" stroke="green" width="45" x="530" y="135" /><text fill="black" font-family="Montserrat" font-size="12" x="531" y="147">A3</text><rect fill="blue" height="12" opacity="0.4" rx="1" ry="1" stroke="blue" width="45" x="482" y="135" /><text fill="black" font-family="Montserrat" font-size="12" x="483" y="147">PB3</text><rect fill="purple" height="12" opacity="0.4" rx="1" ry="1" stroke="purple" width="45" x="434" y="135" /><text fill="black" font-family="Montserrat" font-size="12" x="435" y="147">ADC3</text><rect fill="orange" height="12" opacity="0.5" rx="1" ry="1" stroke="orange" width="45" x="386" y="135" /><text fill="black" font-family="Montserrat" font-size="9" x="387" y="147">PCINT3</text><rect fill="white" height="12" opacity="0.3" rx="1" ry="1" stroke="black" width="45" x="626" y="150" /><text fill="black" font-family="Montserrat" font-size="12" x="627" y="162">PB4</text><rect fill="yellow" height="12" opacity="0.7" rx="1" ry="1" stroke="yellow" width="45" x="578" y="150" /><text fill="black" font-family="Montserrat" font-size="12" x="579" y="162">XTAL2</text><rect fill="green" height="12" opacity="0.3" rx="1" ry="1" stroke="green" width="45" x="530" y="150" /><text fill="black" font-family="Montserrat" font-size="12" x="531" y="162">A2</text><rect fill="blue" height="12" opacity="0.4" rx="1" ry="1" stroke="blue" width="45" x="482" y="150" /><text fill="black" font-family="Montserrat" font-size="12" x="483" y="162">PB4</text><rect fill="purple" height="12" opacity="0.4" rx="1" ry="1" stroke="purple" width="45" x="434" y="150" /><text fill="black" font-family="Montserrat" font-size="12" x="435" y="162">ADC2</text><rect fill="orange" height="12" opacity="0.5" rx="1" ry="1" stroke="orange" width="45" x="386" y="150" /><text fill="black" font-family="Montserrat" font-size="9" x="387" y="162">PCINT4</text><rect fill="white" height="12" opacity="0.3" rx="1" ry="1" stroke="black" width="45" x="626" y="165" /><text fill="black" font-family="Montserrat" font-size="12" x="627" y="177">GND</text><rect fill="black" height="12" opacity="0.9" rx="1" ry="1" stroke="black" width="45" x="578" y="165" /><text fill="white" font-family="Montserrat" font-size="12" x="579" y="177">GND</text><image x="0" xlink:href="../../Images/ATtiny85.png" y="100" /></svg>